<svg width="583" height="125" viewBox="0 0 583 125" fill="none" xmlns="http://www.w3.org/2000/svg">
<path d="M3.772 75.928H10.488V35.908H3.772V29.836H49.588V46.396H42.78V35.908H20.148V51.916H33.764V46.396H38.732V63.876H33.764V58.08H20.148V75.928H27.048V82H3.772V75.928ZM390.849 51.272C397.105 52.376 401.644 54.124 404.465 56.516C407.286 58.8467 408.697 62.4347 408.697 67.28C408.697 70.224 408.022 72.892 406.673 75.284C405.324 77.6147 403.361 79.4853 400.785 80.896C398.209 82.2453 395.173 82.92 391.677 82.92C388.426 82.92 385.421 82.3067 382.661 81.08C379.901 79.8533 377.724 78.136 376.129 75.928V82H368.953V64.336H375.485C376.098 68.016 377.754 70.9907 380.453 73.26C383.152 75.5293 386.586 76.664 390.757 76.664C393.64 76.664 395.878 75.9893 397.473 74.64C399.068 73.2907 399.865 71.3587 399.865 68.844C399.865 66.8813 399.497 65.348 398.761 64.244C398.025 63.0787 396.86 62.1587 395.265 61.484C393.67 60.8093 391.401 60.2267 388.457 59.736L385.237 59.092C374.136 57.1293 368.585 51.916 368.585 43.452C368.585 38.9133 370.088 35.356 373.093 32.78C376.16 30.1427 380.238 28.824 385.329 28.824C388.273 28.824 390.941 29.3147 393.333 30.296C395.786 31.2773 397.78 32.688 399.313 34.528V29.836H406.213V44.74H399.865C398.209 38.3 393.793 35.08 386.617 35.08C383.796 35.08 381.588 35.7547 379.993 37.104C378.46 38.392 377.693 40.14 377.693 42.348C377.693 44.6787 378.552 46.5187 380.269 47.868C382.048 49.156 384.777 50.1373 388.457 50.812L390.849 51.272Z" fill="#E09554"/>
<path d="M98.1245 76.296V82H83.7725L83.4965 77.86C79.2645 81.2333 74.8791 82.92 70.3405 82.92C66.2925 82.92 63.2258 81.7853 61.1405 79.516C59.1165 77.1853 58.1045 74.2107 58.1045 70.592V51.364H52.4925V45.66H66.8445V69.488C66.8445 71.696 67.3658 73.4133 68.4085 74.64C69.4511 75.8667 71.0151 76.48 73.1005 76.48C76.5351 76.48 79.9391 75.1 83.3125 72.34V51.364H77.4245V45.66H91.8685V76.296H98.1245ZM126.422 45.108C128.752 45.108 131.175 45.6907 133.69 46.856L131.758 54.4C129.55 53.0507 127.311 52.376 125.042 52.376C122.772 52.376 120.871 53.2653 119.338 55.044C117.804 56.7613 117.038 59.1533 117.038 62.22L116.946 76.296H123.018V82H101.95V76.296H108.298V51.364H101.95V45.66H116.946V52.376C119.031 47.5307 122.19 45.108 126.422 45.108ZM183.055 76.296V82H162.907V76.296H168.335V58.54C168.335 56.2093 167.752 54.4 166.587 53.112C165.483 51.7627 163.919 51.088 161.895 51.088C158.951 51.088 155.67 52.192 152.051 54.4V76.296H157.939V82H137.055V76.296H143.495V51.364H137.055V45.66H151.775L151.867 49.248C156.528 46.2427 160.852 44.74 164.839 44.74C168.396 44.74 171.279 45.844 173.487 48.052C175.756 50.26 176.891 53.2347 176.891 56.976V76.296H183.055ZM195.145 38.024C193.489 38.024 192.109 37.5027 191.005 36.46C189.901 35.4173 189.349 34.1293 189.349 32.596C189.349 31.0013 189.901 29.6827 191.005 28.64C192.109 27.5973 193.489 27.076 195.145 27.076C196.801 27.076 198.15 27.5973 199.193 28.64C200.297 29.6827 200.849 31.0013 200.849 32.596C200.91 34.1293 200.389 35.4173 199.285 36.46C198.181 37.5027 196.801 38.024 195.145 38.024ZM185.301 76.296H191.741V51.364H185.393V45.66H200.297V76.296H206.369V82H185.301V76.296ZM226.654 82C219.416 82 215.798 78.412 215.798 71.236V51.364H210.186V45.66H215.798V33.424L224.446 30.848V45.66H233.646V51.364H224.446V70.316C224.446 72.4627 224.783 73.996 225.458 74.916C226.194 75.7747 227.42 76.204 229.138 76.204H234.29V82H226.654ZM283.382 76.296V82H269.03L268.754 77.86C264.522 81.2333 260.137 82.92 255.598 82.92C251.55 82.92 248.484 81.7853 246.398 79.516C244.374 77.1853 243.362 74.2107 243.362 70.592V51.364H237.75V45.66H252.102V69.488C252.102 71.696 252.624 73.4133 253.666 74.64C254.709 75.8667 256.273 76.48 258.358 76.48C261.793 76.48 265.197 75.1 268.57 72.34V51.364H262.682V45.66H277.126V76.296H283.382ZM311.679 45.108C314.01 45.108 316.433 45.6907 318.947 46.856L317.015 54.4C314.807 53.0507 312.569 52.376 310.299 52.376C308.03 52.376 306.129 53.2653 304.595 55.044C303.062 56.7613 302.295 59.1533 302.295 62.22L302.203 76.296H308.275V82H287.207V76.296H293.555V51.364H287.207V45.66H302.203V52.376C304.289 47.5307 307.447 45.108 311.679 45.108ZM359.941 65.44H331.329C331.758 68.8747 333.077 71.5733 335.285 73.536C337.493 75.4987 340.253 76.48 343.565 76.48C346.018 76.48 348.349 76.02 350.557 75.1C352.826 74.1187 354.85 72.8 356.629 71.144L359.389 76.388C357.426 78.412 355.065 80.0373 352.305 81.264C349.606 82.4907 346.57 83.104 343.197 83.104C339.271 83.104 335.745 82.3067 332.617 80.712C329.489 79.1173 327.035 76.8787 325.257 73.996C323.478 71.052 322.589 67.6787 322.589 63.876C322.589 60.0733 323.417 56.7307 325.073 53.848C326.79 50.904 329.121 48.6347 332.065 47.04C335.07 45.4453 338.382 44.648 342.001 44.648C347.582 44.648 351.967 46.3653 355.157 49.8C358.346 53.2347 359.941 57.804 359.941 63.508V65.44ZM351.569 60.748C351.569 57.62 350.679 55.1667 348.901 53.388C347.122 51.6093 344.791 50.72 341.909 50.72C339.026 50.72 336.634 51.6093 334.733 53.388C332.831 55.1667 331.697 57.62 331.329 60.748H351.569ZM459.943 76.296V82H439.703V76.296H445.131V58.54C445.131 56.2093 444.579 54.4 443.475 53.112C442.371 51.7627 440.837 51.088 438.875 51.088C435.685 51.088 432.22 52.284 428.479 54.676V76.296H433.815V82H413.667V76.296H419.831V34.62H413.759V28.916H428.479V49.34C433.201 46.2733 437.587 44.74 441.635 44.74C445.192 44.74 448.105 45.844 450.375 48.052C452.644 50.26 453.779 53.2347 453.779 56.976V76.296H459.943ZM482.884 83.104C478.959 83.104 475.494 82.3067 472.488 80.712C469.544 79.1173 467.244 76.848 465.588 73.904C463.932 70.96 463.104 67.5867 463.104 63.784C463.104 59.9813 463.932 56.6387 465.588 53.756C467.244 50.8733 469.544 48.6347 472.488 47.04C475.494 45.4453 478.959 44.648 482.884 44.648C486.81 44.648 490.275 45.4453 493.28 47.04C496.286 48.6347 498.616 50.8733 500.272 53.756C501.928 56.6387 502.756 59.9507 502.756 63.692C502.756 67.4947 501.928 70.868 500.272 73.812C498.616 76.756 496.286 79.056 493.28 80.712C490.275 82.3067 486.81 83.104 482.884 83.104ZM482.884 76.388C486.319 76.388 489.079 75.2533 491.164 72.984C493.25 70.6533 494.292 67.556 494.292 63.692C494.292 59.9507 493.25 56.976 491.164 54.768C489.079 52.4987 486.319 51.364 482.884 51.364C479.45 51.364 476.72 52.4987 474.696 54.768C472.672 57.0373 471.66 60.0427 471.66 63.784C471.66 67.5867 472.672 70.6533 474.696 72.984C476.782 75.2533 479.511 76.388 482.884 76.388ZM532.89 44.74C536.202 44.74 539.177 45.476 541.814 46.948C544.451 48.42 546.506 50.5667 547.978 53.388C549.45 56.2093 550.186 59.552 550.186 63.416C550.186 67.4027 549.358 70.868 547.702 73.812C546.107 76.756 543.93 79.0253 541.17 80.62C538.41 82.1533 535.343 82.92 531.97 82.92C529.823 82.92 527.799 82.6133 525.898 82C523.997 81.3253 522.433 80.4667 521.206 79.424L521.114 90.924H527.922V96.628H506.486V90.924H512.558V51.364H506.67V45.66H520.562L520.746 48.88C524.365 46.12 528.413 44.74 532.89 44.74ZM529.762 76.48C533.135 76.48 535.895 75.376 538.042 73.168C540.189 70.96 541.262 67.8627 541.262 63.876C541.262 60.012 540.219 56.976 538.134 54.768C536.11 52.4987 533.442 51.364 530.13 51.364C528.781 51.364 527.278 51.64 525.622 52.192C523.966 52.6827 522.463 53.4493 521.114 54.492L521.206 73.536C523.721 75.4987 526.573 76.48 529.762 76.48Z" fill="white"/>
</svg>
